<?xml version="1.0" encoding="utf-8"?>
<!-- Generator: Adobe Illustrator 23.0.2, SVG Export Plug-In . SVG Version: 6.00 Build 0)  -->
<svg version="1.1" id="Layer_3" xmlns="http://www.w3.org/2000/svg" xmlns:xlink="http://www.w3.org/1999/xlink" x="0px" y="0px"
	 viewBox="0 0 2500 1406" style="enable-background:new 0 0 2500 1406;" xml:space="preserve">
<style type="text/css">
	.st0{fill:#90D1A7;}
	.st1{fill:none;stroke:#000000;stroke-width:0.5;stroke-miterlimit:10;}
</style>
<path class="st0" d="M443.05,275.88h625.01c39.4,2.91,63.55-6.97,78.13-16.16c17.65-11.13,22.29-21.88,50.29-50.29
	c0,0,18.86-19.13,52.08-46.7c56.07-46.51,128.81-75.64,151.61-84.27c107.45-40.68,199.35-40.42,248.19-39.82
	c98.76,1.21,170.25,21.91,187.49,27.11c48.3,14.54,84.53,31.84,104.17,41.31c61.21,29.52,103.28,60.07,116.74,70.04
	c25.95,19.23,63.1,47.11,102.37,93.39c28.51,33.59,46.71,63.41,55.68,79.02c27.61,48.08,40.3,87.98,53.27,129.62
	c0,0,23.38,73.22,31.96,138.03c39.62,299.45-148.98,527.53-148.98,527.53l-12.57,12.12l97.88,99.68c0,0,17.96,121.23-89.8,81.72
	l-94.29-95.19c0,0-491.2,333.16-895.3-90.7c-39.51-26.94-64.66-16.16-64.66-16.16l-813.59-1.8c0,0-44.9-8.98-46.7-46.7
	c15.48-30.35,39.51-35.92,39.51-35.92l813.59-1.8c0,0-50.29-79.02-64.66-147.27c-10.78-28.74-113.15-32.33-113.15-32.33
	l-790.24,3.59c0,0-43.1,0-48.49-44.9c7.18-41.31,41.31-35.92,41.31-35.92l818.97-1.8l41.31,1.8c0,0,98.78,14.37,168.82,107.76
	c95.5,127.33,145.76,228.95,272.27,292.23c34.99,17.5,74.71,29.59,74.71,29.59c15.98,4.86,82.13,24.09,161.29,21.21
	c159.45-5.8,301.73-98.78,301.73-98.78l0,0l-177.8-174.21c0,0-28.74-61.06,10.78-95.19c41.31-23.35,79.02,5.39,79.02,5.39
	l183.19,184.99c0,0,312.5-334.06-8.98-739.95c-373.57-341.24-730.97-44.9-730.97-44.9s-129.31,131.11-153.36,204.39
	c-96.28,144.03-218.41,129.66-218.41,129.66l-822.57-1.8c0,0-41.31-5.39-41.31-41.31c0-35.92,41.31-37.72,41.31-37.72l801.01-3.59
	c0,0,59.27-3.59,105.96-23.35c25.14-82.62,61.06-150.86,61.06-150.86l-813.59-1.8c0,0-30.53-8.98-39.51-44.9
	c16.16-39.51,44.9-35.92,44.9-35.92L443.05,275.88z"/>
<path class="st1" d="M568.86,568.98"/>
</svg>
